<?xml version="1.0" encoding="UTF-8" standalone="no"?>
<svg
   xmlns:dc="http://purl.org/dc/elements/1.1/"
   xmlns:cc="http://creativecommons.org/ns#"
   xmlns:rdf="http://www.w3.org/1999/02/22-rdf-syntax-ns#"
   xmlns:svg="http://www.w3.org/2000/svg"
   xmlns="http://www.w3.org/2000/svg"
   xmlns:sodipodi="http://sodipodi.sourceforge.net/DTD/sodipodi-0.dtd"
   xmlns:inkscape="http://www.inkscape.org/namespaces/inkscape"
   width="160mm"
   height="60mm"
   viewBox="0 0 160.00002 59.999985"
   version="1.1"
   id="svg49"
   inkscape:version="1.0.2 (e86c870879, 2021-01-15, custom)"
   sodipodi:docname="로고_최적화.svg"
   inkscape:export-filename="C:\Users\kimb\Desktop\로고1.png"
   inkscape:export-xdpi="96"
   inkscape:export-ydpi="96">
  <defs
     id="defs43">
    <inkscape:path-effect
       effect="bspline"
       id="path-effect261"
       is_visible="true"
       lpeversion="1"
       weight="33.333333"
       steps="2"
       helper_size="0"
       apply_no_weight="true"
       apply_with_weight="true"
       only_selected="false" />
    <inkscape:path-effect
       effect="bspline"
       id="path-effect257"
       is_visible="true"
       lpeversion="1"
       weight="33.333333"
       steps="2"
       helper_size="0"
       apply_no_weight="true"
       apply_with_weight="true"
       only_selected="false" />
    <inkscape:perspective
       sodipodi:type="inkscape:persp3d"
       inkscape:vp_x="-11.873423 : 107.55416 : 1"
       inkscape:vp_y="0 : 999.99974 : 0"
       inkscape:vp_z="285.12658 : 107.55416 : 1"
       inkscape:persp3d-origin="136.6266 : 72.554162 : 1"
       id="perspective114" />
    <rect
       x="62.744049"
       y="40.82143"
       width="230.56548"
       height="152.70238"
       id="rect53" />
  </defs>
  <sodipodi:namedview
     id="base"
     pagecolor="#ffffff"
     bordercolor="#666666"
     borderopacity="1.0"
     inkscape:pageopacity="0.0"
     inkscape:pageshadow="2"
     inkscape:zoom="1.979899"
     inkscape:cx="290.47871"
     inkscape:cy="181.1059"
     inkscape:document-units="mm"
     inkscape:current-layer="text51"
     inkscape:document-rotation="0"
     showgrid="false"
     units="mm"
     inkscape:window-width="1920"
     inkscape:window-height="1027"
     inkscape:window-x="-8"
     inkscape:window-y="-8"
     inkscape:window-maximized="1"
     showguides="true"
     inkscape:guide-bbox="true"
     height="461pt">
    <inkscape:grid
       type="xygrid"
       id="grid139"
       originx="-11.904912"
       originy="-11.108832" />
  </sodipodi:namedview>
  <metadata
     id="metadata46">
    <rdf:RDF>
      <cc:Work
         rdf:about="">
        <dc:format>image/svg+xml</dc:format>
        <dc:type
           rdf:resource="http://purl.org/dc/dcmitype/StillImage" />
        <dc:title></dc:title>
      </cc:Work>
    </rdf:RDF>
  </metadata>
  <g
     inkscape:groupmode="layer"
     id="layer3"
     inkscape:label="bg"
     style="display:inline"
     transform="translate(-11.904912,-11.108834)" />
  <g
     inkscape:label="logo"
     inkscape:groupmode="layer"
     id="layer1"
     style="display:inline"
     transform="translate(-11.904912,-11.108834)">
    <g
       aria-label="MESH-ON Lab"
       id="text51"
       style="font-style:normal;font-weight:normal;font-size:10.5833px;line-height:1.25;font-family:sans-serif;white-space:pre;shape-inside:url(#rect53);fill:#000000;fill-opacity:1;stroke:none"
       transform="translate(-12.170835,-25.929177)">
      <path
         d="m 73.993066,52.152339 5.568652,-6.424414 h 3.757911 V 63.053999 H 79.003613 V 52.239156 L 74.32793,57.671382 H 73.670605 L 68.994922,52.239156 V 63.053999 H 64.678906 V 45.727925 h 3.75791 z"
         style="font-style:normal;font-variant:normal;font-weight:bold;font-stretch:normal;font-size:25.4px;font-family:'Gill Sans MT';-inkscape-font-specification:'Gill Sans MT Bold';fill:#404040"
         id="path61" />
      <path
         d="m 99.975977,59.878999 v 3.175 H 87.201563 V 45.727925 h 12.600781 v 3.175 h -8.284766 v 3.633887 h 7.900293 v 3.175 h -7.900293 v 4.167187 z"
         style="font-style:normal;font-variant:normal;font-weight:bold;font-stretch:normal;font-size:25.4px;font-family:'Gill Sans MT';-inkscape-font-specification:'Gill Sans MT Bold';fill:#404040"
         id="path63" />
      <path
         d="m 115.03242,46.844136 v 3.38584 q -3.44785,-1.550293 -5.49424,-1.550293 -1.16582,0 -1.86035,0.396875 -0.68213,0.384473 -0.68213,1.029394 0,0.496094 0.4961,0.942579 0.49609,0.446484 2.41845,1.153418 1.92237,0.706933 3.07578,1.314648 1.15342,0.607715 1.98438,1.711523 0.84336,1.103809 0.84336,2.790528 0,2.406054 -1.83555,3.832324 -1.82314,1.426269 -4.81211,1.426269 -3.22461,0 -6.25078,-1.674316 V 57.86982 q 1.73633,1.16582 3.07578,1.699121 1.33945,0.5333 2.84014,0.5333 2.54248,0 2.54248,-1.599902 0,-0.545703 -0.5085,-1.029394 -0.50849,-0.483692 -2.45566,-1.178223 -1.93477,-0.694531 -3.07578,-1.289844 -1.12862,-0.595312 -1.95957,-1.699121 -0.81856,-1.103808 -0.81856,-2.827734 0,-2.232422 1.79834,-3.59668 1.79834,-1.37666 4.81211,-1.37666 2.77813,0 5.86631,1.339453 z"
         style="font-style:normal;font-variant:normal;font-weight:bold;font-stretch:normal;font-size:25.4px;font-family:'Gill Sans MT';-inkscape-font-specification:'Gill Sans MT Bold';fill:#404040"
         id="path65" />
      <path
         d="m 135.90557,45.727925 v 17.326074 h -4.31602 v -7.007324 h -8.63203 v 7.007324 H 118.6415 V 45.727925 h 4.31602 v 6.957715 h 8.63203 v -6.957715 z"
         style="font-style:normal;font-variant:normal;font-weight:bold;font-stretch:normal;font-size:25.4px;font-family:'Gill Sans MT';-inkscape-font-specification:'Gill Sans MT Bold';fill:#404040"
         id="path67" />
      <path
         id="path71"
         style="font-style:normal;font-variant:normal;font-weight:bold;font-stretch:normal;font-size:25.4px;font-family:'Gill Sans MT';-inkscape-font-specification:'Gill Sans MT Bold';fill:#ffcc00;stroke-width:1"
         d="m 151.60262,45.504716 c -2.96002,0 -5.35781,0.888834 -7.19335,2.666503 -1.21824,1.185156 -2.02792,2.50349 -2.43396,3.953248 h 4.57284 c 0.24904,-0.587309 0.60592,-1.107639 1.07332,-1.559595 1.00872,-0.967382 2.33577,-1.451075 3.98115,-1.451075 1.63712,0 2.9559,0.483693 3.95635,1.451075 1.00045,0.967383 1.50069,2.244823 1.50069,3.832323 0,1.579232 -0.50024,2.856675 -1.50069,3.832326 -1.00045,0.967383 -2.31923,1.451073 -3.95635,1.451073 -1.64538,0 -2.97243,-0.48369 -3.98115,-1.451073 -0.39957,-0.389663 -0.71758,-0.828191 -0.95756,-1.314133 h -4.62349 c 0.42789,1.376937 1.22485,2.621447 2.39365,3.732588 1.84381,1.752865 4.23333,2.629297 7.16855,2.629297 2.90215,0 5.27926,-0.880565 7.13135,-2.641698 1.85208,-1.761132 2.77813,-3.840593 2.77813,-6.23838 0,-2.364713 -0.91365,-4.435903 -2.74092,-6.213573 -1.82728,-1.785937 -4.2168,-2.678906 -7.16856,-2.678906 z" />
      <path
         d="m 182.18694,45.727925 v 17.326074 h -3.63389 l -9.57461,-11.100097 v 11.100097 h -4.31601 V 45.727925 h 3.95635 l 9.25214,10.591602 V 45.727925 Z"
         style="font-style:normal;font-variant:normal;font-weight:bold;font-stretch:normal;font-size:25.4px;font-family:'Gill Sans MT';-inkscape-font-specification:'Gill Sans MT Bold';fill:#404040"
         id="path73" />
      <path
         d="m 77.887402,85.278995 v 3.175 H 64.678906 V 71.127921 h 4.316016 v 14.151074 z"
         style="font-style:normal;font-variant:normal;font-weight:bold;font-stretch:normal;font-size:25.4px;font-family:'Gill Sans MT';-inkscape-font-specification:'Gill Sans MT Bold';fill:#404040"
         id="path75" />
      <path
         d="m 91.852441,85.564249 v 2.046387 q -1.835547,1.066601 -3.447851,1.066601 -1.736328,0 -2.058789,-1.314648 -1.922364,1.314648 -3.857129,1.314648 -1.364258,0 -2.319238,-0.855761 -0.954981,-0.868164 -0.954981,-2.00918 0,-1.525488 0.979785,-2.455664 0.992188,-0.942578 5.97793,-2.418457 0.124023,-1.95957 -2.033984,-1.95957 -2.344043,0 -4.316016,1.95957 v -3.001367 q 2.306836,-1.42627 5.072558,-1.42627 4.960938,0 4.960938,3.559473 v 5.333008 q 0,0.818554 0.607715,0.818554 0.458886,0 1.389062,-0.657324 z m -5.680273,0.04961 v -2.827734 q -1.847949,0.644922 -2.542481,1.16582 -0.682128,0.508496 -0.682128,1.302246 0,0.508497 0.347265,0.880567 0.347266,0.359668 0.84336,0.359668 1.041796,0 2.033984,-0.880567 z"
         style="font-style:normal;font-variant:normal;font-weight:bold;font-stretch:normal;font-size:25.4px;font-family:'Gill Sans MT';-inkscape-font-specification:'Gill Sans MT Bold';fill:#404040"
         id="path77" />
      <path
         d="m 97.011815,71.127921 v 6.275586 q 1.451074,-0.892969 3.013765,-0.892969 2.53008,0 4.11758,1.686719 1.5999,1.686719 1.5999,4.365625 0,2.691308 -1.53789,4.402832 -1.52548,1.711523 -3.91914,1.711523 -1.736325,0 -3.274215,-1.116211 v 0.892969 H 93.328319 V 71.127921 Z m 0,8.669238 v 5.432227 q 1.116211,0.992187 2.182812,0.992187 1.314653,0 2.058793,-0.979785 0.75654,-0.992187 0.75654,-2.728515 0,-1.686719 -0.79375,-2.604493 -0.78135,-0.930175 -2.071192,-0.930175 -1.00459,0 -2.133203,0.818554 z"
         style="font-style:normal;font-variant:normal;font-weight:bold;font-stretch:normal;font-size:25.4px;font-family:'Gill Sans MT';-inkscape-font-specification:'Gill Sans MT Bold';fill:#404040"
         id="path79" />
      <path
         d="m 148.93836,52.842737 v 3.373437 h -10.78504 v -3.373437 z"
         style="font-style:normal;font-variant:normal;font-weight:bold;font-stretch:normal;font-size:25.4px;font-family:'Gill Sans MT';-inkscape-font-specification:'Gill Sans MT Bold';fill:#404040;stroke-width:1.27611"
         id="path69" />
      <rect
         style="fill:#ffcc00;stroke-width:0.532973"
         id="rect112"
         width="33.542324"
         height="42.896759"
         x="26.192415"
         y="45.831356" />
      <g
         id="path263" />
      <g
         id="path265"
         style="fill:#404040">
        <path
           id="path286"
           style="color:#000000;font-style:normal;font-variant:normal;font-weight:normal;font-stretch:normal;font-size:medium;line-height:1.25;font-family:sans-serif;font-variant-ligatures:normal;font-variant-position:normal;font-variant-caps:normal;font-variant-numeric:normal;font-variant-alternates:normal;font-variant-east-asian:normal;font-feature-settings:normal;font-variation-settings:normal;text-indent:0;text-align:start;text-decoration:none;text-decoration-line:none;text-decoration-style:solid;text-decoration-color:#000000;letter-spacing:normal;word-spacing:normal;text-transform:none;writing-mode:lr-tb;direction:ltr;text-orientation:mixed;dominant-baseline:auto;baseline-shift:baseline;text-anchor:start;white-space:normal;shape-padding:0;shape-margin:0;inline-size:0;clip-rule:nonzero;display:inline;overflow:visible;visibility:visible;isolation:auto;mix-blend-mode:normal;color-interpolation:sRGB;color-interpolation-filters:linearRGB;solid-color:#000000;solid-opacity:1;vector-effect:none;fill:#404040;fill-opacity:1;fill-rule:nonzero;stroke:none;stroke-linecap:butt;stroke-linejoin:miter;stroke-miterlimit:4;stroke-dasharray:none;stroke-dashoffset:0;stroke-opacity:1;color-rendering:auto;image-rendering:auto;shape-rendering:auto;text-rendering:auto;enable-background:accumulate;stop-color:#000000;stop-opacity:1"
           d="m 39.404297,72.244141 -0.332031,0.326171 3.828125,3.873047 0.332031,-0.328125 z m -0.166298,0.162945 3.828317,3.872209 m 3.203215,-17.292967 -6.550781,5.246094 0.380859,0.474609 6.550782,-5.246093 z m -6.361157,5.483219 6.550811,-5.246384 m -2.403962,16.070712 c -2.446945,1.721614 -3.411847,5.484775 -1.506738,7.946716 1.883692,2.578025 5.894685,2.625183 8.218689,0.629132 2.389179,-1.792953 3.221922,-5.587324 1.222721,-7.968462 -1.911505,-2.39489 -5.62277,-2.42371 -7.934672,-0.607386 z m 0.08695,0.224442 c 2.336064,-1.876197 6.181646,-1.17262 7.637814,1.466077 1.604756,2.554701 0.371818,6.264061 -2.394262,7.421633 -2.622288,1.292327 -6.129055,-0.130421 -7.048649,-2.920219 -0.794022,-2.112196 -0.01045,-4.639742 1.805097,-5.967491 z m 6.238134,-25.505633 c -2.990407,-0.09467 -6.023308,2.333068 -5.980337,5.445743 -0.04391,3.192583 3.133481,5.64094 6.19057,5.442381 2.987113,0.0029 5.933147,-2.529177 5.766409,-5.633822 -0.08838,-3.06293 -3.037245,-5.316489 -5.976642,-5.254302 z m -0.0654,0.23164 c 2.994692,-0.09552 5.645367,2.778059 5.223295,5.762184 -0.252832,3.006295 -3.467623,5.229942 -6.374096,4.492663 -2.872539,-0.543159 -4.820187,-3.787891 -3.878452,-6.570293 0.634849,-2.165365 2.780201,-3.714539 5.029253,-3.684554 z m -19.98454,17.681097 c -0.145982,2.988341 2.229346,6.062464 5.3423,6.072922 3.191359,0.0987 5.693889,-3.036203 5.547829,-6.09625 0.0542,-2.986622 -2.426974,-5.975681 -5.534024,-5.862253 -3.063995,0.0358 -5.367833,2.945549 -5.356105,5.885581 z m 0.230484,0.06937 c -0.04411,-2.995891 2.874542,-5.596855 5.850983,-5.123629 3.001513,0.304392 5.169657,3.556874 4.382602,6.450266 -0.59238,2.862794 -3.870063,4.754466 -6.635892,3.765114 -2.15415,-0.671921 -3.666274,-2.843545 -3.597693,-5.091751 z" />
      </g>
    </g>
  </g>
</svg>
